<svg width="1362" height="905" viewBox="0 0 1362 905" fill="none" xmlns="http://www.w3.org/2000/svg">
<g filter="url(#filter0_d)">
<rect x="4" width="1354" height="897" fill="url(#paint0_linear)"/>
<path fill-rule="evenodd" clip-rule="evenodd" d="M921.164 628.484L921.888 624.594L923.335 620.705L924.783 616.815L926.231 612.926L928.402 610.008L929.85 608.064L931.297 607.091L932.745 606.119L934.916 605.146L937.088 604.174H941.431L943.602 605.146L945.05 606.119L946.497 607.091L947.945 608.064L949.392 610.008L951.564 613.898L953.011 617.788L954.459 621.677V625.567L955.183 629.456H921.164V628.484ZM939.259 593.478H935.64L932.745 594.45L929.85 595.422L926.954 596.395L924.783 598.34L922.612 601.257L920.44 604.174L918.269 607.091L916.821 610.008L915.374 612.926L913.926 616.815L912.478 620.705L911.755 624.594L911.031 628.484V633.346L910.307 638.208L911.031 643.07V647.932L911.755 651.822L912.478 655.711L913.926 659.601L915.374 662.518L916.821 665.435L918.269 668.352L920.44 670.297L922.612 672.242L924.783 674.187L927.678 675.159L930.574 676.132L933.469 677.104L936.364 678.076H945.773L950.84 677.104L955.183 675.159L959.526 673.214L957.354 662.518L955.907 666.408H952.288L947.945 667.38H938.535L934.193 666.408L930.574 664.463L929.126 663.49L927.678 661.546L926.231 659.601L924.783 657.656L923.335 655.711L922.612 652.794V649.877L921.888 646.96V643.07L921.164 639.18H963.868V636.263L964.592 632.374L963.868 625.567L963.145 618.76L961.697 611.953L960.249 609.036L958.802 606.119L957.354 603.202L955.907 600.284L953.735 598.34H951.564L948.669 596.395L945.773 594.45L942.154 593.478H939.259ZM890.764 643.07V646.96L890.041 649.877L889.317 653.766L887.145 656.684L885.698 659.601L883.526 662.518L881.355 664.463L879.184 666.408L876.288 667.38H871.946L869.774 666.408H867.603L866.155 665.435L864.708 664.463L863.26 662.518L861.812 660.573L861.089 658.628L858.917 653.766L857.47 648.904L856.022 643.07V630.429L857.47 624.594L858.917 618.76L861.089 613.898L861.812 611.953L863.26 610.008L864.708 608.064L866.879 607.091L868.327 606.119L870.498 605.146L871.946 604.174H874.117L877.012 605.146L879.907 606.119L882.079 607.091L884.25 609.036L886.422 611.953L887.869 614.87L889.317 617.788L890.041 621.677L890.764 624.594V643.07ZM900.898 561.389H890.041V606.119H889.317L888.593 603.202L887.145 601.257L885.698 599.312L883.526 597.367L881.355 596.395L878.46 594.45L874.841 593.478H869.05L866.155 594.45L863.26 595.422L861.089 596.395L858.917 598.34L856.746 600.284L854.574 602.229L852.403 605.146L850.955 608.064L849.508 610.981L848.06 614.87L846.613 618.76L845.889 622.65L845.165 627.512L844.441 632.374V643.07L845.165 646.96L845.889 651.822L846.613 655.711L848.06 659.601L849.508 662.518L850.955 665.435L852.403 668.352L854.574 670.297L856.746 672.242L858.917 674.187L861.089 675.159L863.26 676.132L866.155 677.104L869.05 678.076H875.565L879.184 677.104L882.079 675.159L884.974 673.214L887.145 671.27L889.317 668.352L891.488 665.435L892.936 661.546L893.66 676.132H903.069L902.345 666.408V561.389H900.898ZM821.279 678.076H832.136V595.422H821.279V678.076ZM827.07 561.389L825.622 562.361H824.175L822.727 563.333L822.003 564.306L820.556 565.278L819.832 567.223V575.002L820.556 576.947L821.279 577.919L822.727 579.864L824.175 580.837H829.965L830.689 579.864L831.413 577.919L832.136 576.947L832.86 575.002L833.584 573.057V569.168L832.86 567.223L832.136 565.278L831.413 564.306L830.689 563.333L829.965 562.361H828.517L827.07 561.389ZM791.604 629.456L784.366 625.567L782.194 623.622L780.023 621.677L779.299 620.705L777.851 619.732V614.87L778.575 611.953L779.299 610.008L780.747 608.064L782.194 607.091L784.366 605.146H786.537L789.432 604.174L793.775 605.146L797.394 606.119L801.013 607.091L803.908 609.036L806.803 599.312L803.184 597.367L799.565 595.422L795.223 594.45L790.156 593.478L784.366 594.45H782.194L780.023 595.422L777.851 596.395L775.68 598.34L774.232 599.312L772.785 601.257L772.061 603.202L770.613 605.146L769.166 609.036L768.442 613.898L766.994 617.788L767.718 621.677L768.442 624.594L769.89 627.512L771.337 630.429L773.509 633.346L776.404 636.263L780.023 638.208L784.366 640.153L791.604 644.042L793.775 645.987L795.946 647.932L797.394 649.877L798.118 651.822V653.766L798.842 655.711L798.118 658.628L797.394 660.573L796.67 662.518L795.223 664.463L793.051 666.408L790.88 667.38L787.985 668.352H785.089L780.747 667.38L776.404 666.408L772.061 664.463L768.442 662.518L765.547 673.214L769.89 675.159L774.232 677.104L779.299 678.076H790.156L795.223 676.132L797.394 675.159L799.565 676.132L801.013 674.187L803.184 672.242L804.632 671.27L806.08 669.325L806.803 667.38L808.251 665.435L808.975 663.49V660.573L809.699 655.711V650.849L808.251 646.96L806.803 643.07L804.632 640.153L802.461 637.236L799.565 634.318L795.946 631.401L791.604 629.456ZM722.119 611.953L720.671 595.422H710.538L711.262 608.064V678.076H722.842V630.429L723.566 626.539L724.29 622.65L725.738 618.76L727.185 615.843L728.633 612.926L730.804 610.981L733.699 609.036L736.595 608.064H744.556V594.45L743.109 593.478H740.937L738.042 594.45L735.147 595.422L732.252 596.395L729.357 598.34L727.185 601.257L725.014 604.174L723.566 608.064L722.119 611.953ZM694.614 595.422H683.757V649.877L683.033 653.766L681.586 656.684L680.862 658.628L679.414 661.546L677.967 663.49L675.795 665.435L673.624 666.408L670.729 667.38L667.833 668.352L664.214 667.38L662.043 666.408L659.872 663.49L658.424 660.573L656.253 656.684L654.805 652.794V595.422H643.948V648.904L644.672 653.766L645.396 657.656L646.119 661.546L646.843 664.463L648.291 667.38L649.738 670.297L651.186 672.242L652.634 674.187L654.081 676.132L656.253 677.104L658.424 679.049L662.043 680.021H670.005L673.624 679.049L676.519 677.104L679.414 675.159L681.586 672.242L683.757 670.297L685.205 667.38L686.652 664.463L687.376 678.076H696.786V667.38L696.062 654.739V595.422H694.614ZM603.415 669.325H599.072L597.625 668.352L596.177 666.408L594.729 664.463L593.282 662.518L591.834 660.573L590.387 658.628L588.215 653.766L586.768 647.932L586.044 642.098L585.32 637.236L586.044 631.401L586.768 625.567L588.215 619.732L590.387 614.87L591.834 612.926L593.282 610.981L594.729 609.036L596.177 607.091L597.625 606.119L599.796 605.146L601.968 604.174H606.31L608.482 605.146L610.653 606.119L612.825 607.091L614.272 609.036L615.72 610.981L617.167 612.926L618.615 614.87L620.786 619.732L622.234 625.567L622.958 631.401V644.042L621.51 650.849L618.615 654.739L616.444 659.601L614.996 661.546L613.548 663.49L612.101 665.435L611.377 666.408L609.206 667.38L607.034 668.352H603.415V669.325ZM604.139 593.478H601.244L598.348 594.45L595.453 595.422L592.558 596.395L589.663 598.34L587.491 600.284L585.32 602.229L582.425 605.146L580.977 608.064L578.806 610.981L577.358 614.87L575.911 618.76L575.187 623.622L574.463 627.512V632.374L573.739 637.236L574.463 642.098V646.96L575.187 650.849L576.634 654.739L577.358 658.628L579.53 661.546L580.977 664.463L582.425 667.38L584.596 670.297L586.768 672.242L588.939 674.187L591.834 676.132L594.729 677.104L597.625 678.076L600.52 679.049H609.206L612.101 678.076L614.996 676.132L617.891 675.159L620.063 673.214L622.234 671.27L624.405 669.325L625.853 666.408L628.024 663.49L629.472 659.601L630.92 655.711L632.367 650.849L633.091 645.987L633.815 640.153V629.456L633.091 624.594L632.367 620.705L631.643 616.815L630.196 612.926L628.748 609.036L627.301 608.064L625.853 605.146L623.682 602.229L621.51 600.284L618.615 598.34L615.72 597.367L612.825 596.395L609.929 595.422L607.034 594.45H604.139V593.478ZM548.406 644.042L544.063 660.573H543.34L541.892 652.794L539.721 644.042L526.692 595.422H515.111L537.549 671.27L538.273 673.214L538.997 674.187L538.273 676.132L537.549 678.076L535.378 683.911L533.206 688.773L530.311 692.662L528.14 695.58L525.968 698.497L523.073 700.442L520.902 702.386L518.73 703.359L521.626 716L523.797 715.028L527.416 713.083L531.035 710.166L534.654 706.276L537.549 702.386L540.444 697.524L543.34 692.662L545.511 686.828L547.682 680.021L550.578 672.242L556.368 653.766L572.292 594.45H560.711L548.406 644.042ZM467.34 574.03L456.483 578.892V595.422H447.074V607.091H456.483V659.601L457.207 665.435L458.655 670.297L460.826 674.187L462.998 677.104L465.893 679.049L469.512 680.021H479.645L483.988 678.076L481.816 666.408L478.921 667.38L476.026 668.352L473.855 667.38H472.407L470.959 666.408L469.512 664.463L468.788 662.518L468.064 659.601L467.34 656.684V607.091H483.264V595.422H467.34V574.03ZM426.807 650.849V652.794L426.084 654.739L425.36 657.656L423.912 659.601L423.188 662.518L421.741 664.463L419.569 666.408L417.398 668.352L414.503 669.325H409.436L407.989 668.352L405.817 666.408L404.37 664.463L402.922 662.518L402.198 659.601L401.474 657.656V650.849L402.198 647.932L402.922 645.987L403.646 644.042L405.093 642.098L406.541 640.153L407.989 638.208L410.16 637.236L414.503 635.291L418.846 634.318H427.531V650.849H426.807ZM437.665 627.512V621.677L436.941 615.843L436.217 612.926L435.493 610.008L434.045 607.091L432.598 604.174L431.15 602.229L429.703 600.284L428.255 598.34L426.084 596.395L423.188 595.422L420.293 594.45L417.398 593.478H413.779L408.712 594.45L403.646 595.422L398.579 598.34L394.236 601.257L397.132 610.981L400.751 608.064L405.093 606.119L409.436 605.146L413.779 604.174L415.95 605.146H418.122L419.569 606.119L421.017 607.091L422.465 608.064L423.912 609.036L425.36 611.953L426.807 614.87L427.531 617.788L428.255 620.705V625.567L419.569 626.539H415.95L410.884 627.512L407.265 629.456L404.37 630.429L401.474 632.374L399.303 634.318L397.132 636.263L395.684 638.208L394.236 640.153L392.789 643.07L391.341 645.987L390.617 648.904L389.894 652.794V661.546L390.617 665.435L392.065 669.325L394.236 673.214L396.408 676.132L400.027 679.049L401.474 680.021L403.646 680.994H412.331L415.227 680.021L418.122 679.049L420.293 677.104L422.465 675.159L424.636 673.214L426.084 671.27L427.531 669.325L428.979 680.021H439.112L438.388 670.297L437.665 657.656V627.512ZM918.269 394.136L919.717 389.274L921.164 384.412L922.612 379.55L924.783 375.66L926.954 371.771L929.126 367.881L931.297 364.964L934.193 362.047L937.088 359.13L939.983 357.185L942.878 355.24L945.773 353.295L949.392 352.323L953.011 351.35L956.63 350.378H964.592L968.935 351.35L973.278 353.295L977.621 355.24L981.24 357.185L984.859 360.102L987.754 363.019L990.649 365.936L993.544 368.853L995.716 372.743L997.887 376.633L999.335 380.522L1000.78 384.412L1001.51 388.301L1002.23 391.219V394.136H918.269ZM544.787 479.707L540.444 478.735L536.102 477.762L531.759 476.79L527.416 473.873L523.073 471.928L519.454 469.011L515.835 465.121L512.216 462.204L509.321 458.314L506.426 452.48L504.254 447.618L502.807 442.756L501.359 436.921L499.911 431.087L499.188 424.28V411.639L499.911 404.832L501.359 398.998L502.807 393.163L504.978 387.329L507.149 382.467L510.045 377.605L512.94 373.716L515.835 369.826L519.454 365.936L523.797 363.019L527.416 361.074L531.759 359.13L536.102 358.157L540.444 357.185L544.787 356.212L549.854 357.185L554.197 358.157L558.539 359.13L562.882 361.074L567.225 363.019L570.844 365.936L574.463 369.826L577.358 373.716L580.253 378.577L583.149 383.439L585.32 389.274L587.491 394.136L588.939 399.97L590.387 405.805L591.11 411.639V424.28L590.387 430.115L588.939 435.949L586.044 442.756L583.872 447.618L581.701 453.452L579.53 458.314L576.634 462.204L573.739 466.093L570.12 469.983L566.501 472.9L562.158 474.845L557.816 477.762L553.473 478.735L549.13 479.707H544.787ZM316.066 479.707L311.723 478.735L307.38 477.762L303.037 476.79L298.695 473.873L295.076 471.928L291.457 469.011L287.838 465.121L284.219 462.204L281.323 458.314L278.428 452.48L276.257 447.618L274.809 442.756L273.361 436.921L271.914 431.087L271.19 425.253V412.611L271.914 405.805L273.361 399.97L274.809 394.136L276.981 388.301L278.428 384.412L281.323 379.55L284.219 375.66L287.114 371.771L290.733 367.881L295.076 364.964L298.695 363.019L303.037 361.074L307.38 360.102L311.723 359.13L316.066 358.157L320.409 359.13L325.475 360.102L329.818 361.074L334.161 363.019L338.504 364.964L342.123 367.881L345.742 371.771L348.637 375.66L351.532 380.522L354.427 385.384L356.599 391.219L358.77 396.081L360.218 401.915L361.665 407.749L362.389 413.584V426.225L361.665 432.059L360.218 437.894L357.322 442.756L355.151 447.618L352.98 453.452L350.808 457.342L347.913 462.204L345.018 466.093L341.399 469.983L337.78 472.9L333.437 474.845L329.094 477.762L324.751 478.735L319.685 479.707H316.066ZM1121.66 307.592H1112.25L1103.56 309.537L1095.6 311.482L1087.64 314.399L1080.4 318.289L1073.89 323.151L1068.1 328.013L1063.03 333.847L1057.96 340.654L1053.62 347.461L1050 355.24L1047.11 363.019L1044.93 370.798L1043.49 379.55L1042.04 388.301V398.025L1040.59 388.301L1038.42 378.577L1035.52 369.826L1031.91 361.074L1027.56 353.295L1023.94 344.544L1018.88 337.737L1013.81 330.93L1008.02 325.096L1002.23 320.234L994.992 316.344L988.478 312.454L981.24 309.537L974.002 307.592L966.764 306.62L959.526 305.648L952.288 306.62L945.05 307.592L937.812 309.537L931.297 312.454L925.507 316.344L918.993 320.234L913.202 325.096L907.412 330.93L902.345 336.764L897.279 344.544L893.66 351.35L889.317 359.13L885.698 367.881L882.803 376.633L880.631 386.357L878.46 396.081V387.329L877.012 378.577L875.565 370.798L873.393 362.047L871.946 354.268L868.327 347.461L864.708 339.682L861.089 332.875L856.746 327.04L851.679 321.206L846.613 316.344L840.822 312.454L835.032 309.537L828.517 308.565L822.003 306.62H809.699L803.908 307.592L798.842 309.537L793.775 312.454L788.708 315.372L783.642 319.261L779.299 324.123L774.956 328.985V258H736.595V423.308L735.871 432.059V437.894L734.423 442.756L732.976 448.59L731.528 453.452L730.08 458.314L727.909 462.204L725.738 466.093L723.566 469.011L721.395 471.928L718.5 474.845L715.604 476.79L712.709 477.762L709.814 479.707L706.195 480.679H703.3L699.681 481.652L696.062 480.679H692.443L688.824 479.707L685.205 478.735L683.757 476.79L680.862 474.845L677.967 472.9L675.795 470.955L673.624 468.038L671.452 464.149L669.281 459.287L667.833 454.425L666.386 449.563L665.662 443.728L664.938 437.894L664.214 431.087V358.157H724.29V309.537H664.214V258H625.129V397.053L623.682 387.329L621.51 378.577L618.615 369.826L614.996 362.047L611.377 353.295L607.034 345.516L602.691 337.737L596.901 331.902L591.834 326.068L586.044 320.234L579.53 315.372L573.015 311.482L565.777 308.565L558.539 306.62L551.301 305.648L544.063 304.675H538.997L533.93 305.648L529.587 306.62L525.245 307.592L520.178 309.537L515.835 311.482L511.492 313.427L507.149 316.344L503.53 319.261L499.188 322.178L495.569 326.068L491.95 329.958L488.331 333.847L484.712 338.709L481.093 342.599L478.197 347.461V307.592H464.445L455.76 309.537L447.798 311.482L440.56 314.399L433.322 318.289L426.807 322.178L423.188 327.04L418.122 332.875L413.779 339.682L409.436 345.516L405.817 353.295L402.922 361.074L400.027 368.853L398.579 377.605L397.132 386.357L396.408 395.108L394.96 386.357L392.789 377.605L389.894 368.853L386.998 360.102L383.379 352.323L379.76 345.516L374.694 338.709L370.351 332.875L365.284 327.04L360.218 322.178L354.427 317.316L348.637 313.427L342.123 310.51L335.608 308.565L329.094 306.62H314.618L306.656 309.537L299.418 311.482L293.628 314.399L287.838 318.289L282.771 323.151L276.981 328.985L272.638 334.82V258H235V418.446L235.724 430.115L236.448 440.811L238.619 452.48L241.514 462.204L244.409 471.928L248.752 480.679L253.095 489.431L258.162 497.21L263.228 504.989L266.123 507.907L269.019 510.824L272.638 513.741L276.257 516.658L279.876 519.575L283.495 521.52L287.114 523.465L291.457 525.41L295.799 526.382L299.418 527.355L303.761 528.327L307.38 530.272H323.304L331.266 528.327L338.504 526.382L345.742 523.465L352.256 520.548L358.046 515.686L363.837 510.824L368.903 504.989L373.97 499.155L378.313 492.348L382.656 485.541L386.275 477.762L389.894 469.983L392.789 461.231L394.96 452.48L396.408 442.756V525.41H434.769V408.722L435.493 402.887L436.217 397.053L436.941 392.191L438.388 387.329L439.836 383.439L442.007 379.55L444.179 375.66L446.35 372.743L449.245 369.826L452.141 366.909L455.76 364.964L459.379 363.019L462.998 361.074L467.34 360.102L471.683 359.13H476.026L472.407 364.964L469.512 371.771L467.34 379.55L465.893 387.329L463.721 394.136L462.274 401.915L461.55 409.694V423.308L462.274 429.142V434.977L462.998 440.811L464.445 446.645L465.169 452.48L466.617 458.314L468.064 463.176L471.683 472.9L476.026 482.624L480.369 491.376L485.435 499.155L491.226 505.962L497.74 512.769L504.978 518.603L512.216 523.465L515.835 525.41L519.454 527.355L523.797 529.299L528.14 530.272L531.759 531.244L536.102 532.217L540.444 533.189H544.787L552.025 532.217L559.263 531.244L566.501 529.299L573.739 526.382L580.253 522.493L586.768 517.631L592.558 512.769L597.625 506.934L602.691 500.127L607.034 492.348L611.377 485.541L614.996 477.762L618.615 469.983L621.51 461.231L623.682 452.48L625.129 442.756L625.853 452.48L626.577 462.204L628.024 470.955L630.92 479.707L633.815 487.486L637.434 494.293L641.053 501.1L646.119 507.907L651.186 513.741L656.253 518.603L662.043 520.548L667.833 524.437L674.348 527.355L680.862 529.299L688.1 530.272H701.128L706.919 529.299L711.985 527.355L717.052 524.437L722.119 520.548L726.461 516.658L730.804 511.796L735.147 505.962V524.437H773.509V412.611L774.232 406.777V399.97L774.956 393.163L775.68 387.329L777.128 382.467L778.575 377.605L780.023 372.743L782.194 368.853L784.366 365.936L787.261 363.019L789.432 361.074L792.327 359.13L795.223 357.185L798.118 355.24L801.013 354.268H813.318L816.213 355.24L819.108 357.185L822.003 359.13L824.175 361.074L828.517 364.964L830.689 367.881L832.86 370.798L834.308 374.688L835.755 379.55L837.203 384.412L838.651 389.274L839.374 395.108L840.098 400.943V525.41L879.184 526.382V442.756L881.355 452.48L883.526 462.204L886.422 470.955L890.041 479.707L893.66 487.486L898.002 495.265L903.069 502.072L908.136 508.879L913.926 514.713L919.717 519.575L926.231 524.437L932.745 527.355L939.259 530.272L946.497 532.217L953.735 533.189H969.659L977.621 531.244L984.859 529.299L991.373 526.382L997.887 522.493L1003.68 518.603L1008.74 513.741L1013.81 507.907L1018.15 502.072L1022.5 495.265L1026.12 488.459L1029.73 480.679L1032.63 473.873L1034.8 466.093L1036.97 458.314L1038.42 450.535H1000.78L999.335 456.369L996.439 462.204L994.992 465.121L992.82 468.038L990.649 470.955L988.478 473.873L985.582 476.79L982.687 479.707L979.792 481.652L976.173 483.597L972.554 485.541L968.935 486.514L965.316 487.486H957.354L953.011 486.514L949.392 485.541L945.773 483.597L941.431 481.652L937.812 479.707L934.193 476.79L931.297 473.873L928.402 469.983L925.507 466.093L923.335 462.204L922.612 456.369L920.44 452.48L918.993 447.618L917.545 441.783L916.097 435.949H1041.32V525.41H1079.68V408.722L1080.4 402.887L1081.12 397.053L1081.85 391.219L1083.3 386.357L1084.74 381.495L1086.91 377.605L1089.09 373.716L1091.98 370.798L1094.88 367.881L1097.77 364.964L1101.39 363.019L1105.01 361.074L1108.63 359.13L1112.97 358.157L1117.31 357.185H1126V307.592H1121.66Z" fill="white"/>
</g>
<defs>
<filter id="filter0_d" x="0" y="0" width="1362" height="905" filterUnits="userSpaceOnUse" color-interpolation-filters="sRGB">
<feFlood flood-opacity="0" result="BackgroundImageFix"/>
<feColorMatrix in="SourceAlpha" type="matrix" values="0 0 0 0 0 0 0 0 0 0 0 0 0 0 0 0 0 0 127 0"/>
<feOffset dy="4"/>
<feGaussianBlur stdDeviation="2"/>
<feColorMatrix type="matrix" values="0 0 0 0 0 0 0 0 0 0 0 0 0 0 0 0 0 0 0.25 0"/>
<feBlend mode="normal" in2="BackgroundImageFix" result="effect1_dropShadow"/>
<feBlend mode="normal" in="SourceGraphic" in2="effect1_dropShadow" result="shape"/>
</filter>
<linearGradient id="paint0_linear" x1="1452" y1="897" x2="-307" y2="549.5" gradientUnits="userSpaceOnUse">
<stop offset="0.213542" stop-color="#2B33EF"/>
<stop offset="1" stop-color="#E16479"/>
</linearGradient>
</defs>
</svg>
